<svg width="24" height="24" viewBox="0 0 24 24" fill="none" xmlns="http://www.w3.org/2000/svg">
<path d="M18.1471 17.085C17.4861 18.1211 16.5695 18.9696 15.4855 19.5488C14.4016 20.128 13.1868 20.4184 11.9581 20.392C10.811 20.4426 9.67021 20.1982 8.6446 19.682C7.619 19.1659 6.74291 18.3954 6.10008 17.444C3.42108 12.931 6.38708 8.70703 6.98808 7.89603C7.52118 7.33481 7.89576 6.64215 8.07355 5.88879C8.25135 5.13543 8.226 4.34838 8.00008 3.60803C9.28708 4.56103 14.4451 6.82603 13.5371 14.108C15.0371 12.986 16.2431 11.099 16.3901 7.96903C17.8231 9.01703 20.3831 13.363 18.1471 17.085Z" stroke="#2F2F38" stroke-width="2" stroke-linecap="round" stroke-linejoin="round"/>
</svg>
