<svg width="24" height="24" viewBox="0 0 24 24" fill="none" xmlns="http://www.w3.org/2000/svg">
<path d="M9.80599 7.61403L5.55499 7.97603L3.31099 10.219C3.17071 10.3579 3.07207 10.5332 3.02623 10.7252C2.9804 10.9172 2.98919 11.1182 3.05161 11.3055C3.11403 11.4928 3.22759 11.6588 3.37946 11.7849C3.53133 11.911 3.71544 11.9921 3.91099 12.019L6.94699 12.375M16.386 14.194L16.024 18.445L13.781 20.689C13.6419 20.8279 13.467 20.9252 13.2757 20.9702C13.0844 21.0152 12.8844 21.006 12.6981 20.9437C12.5117 20.8814 12.3464 20.7685 12.2206 20.6175C12.0949 20.4666 12.0136 20.2836 11.986 20.089L11.537 17.106M20.724 4.53603C20.671 4.22109 20.5212 3.93048 20.2954 3.70465C20.0695 3.47882 19.7789 3.329 19.464 3.27603C17.646 2.96303 13.944 2.57603 12.285 4.23603C10.405 6.11703 6.42199 13.252 5.18499 15.511C5.07554 15.711 5.0342 15.9411 5.06722 16.1667C5.10023 16.3922 5.20582 16.6009 5.36799 16.761L6.29999 17.7L7.23699 18.636C7.39717 18.7982 7.60581 18.9038 7.83135 18.9368C8.05689 18.9698 8.28704 18.9285 8.48699 18.819C10.746 17.58 17.881 13.597 19.762 11.719C21.422 10.056 21.037 6.35403 20.724 4.53603ZM17.392 8.72303C17.392 9.89112 16.4451 10.838 15.277 10.838C14.1089 10.838 13.162 9.89112 13.162 8.72303C13.162 7.55495 14.1089 6.60803 15.277 6.60803C16.4451 6.60803 17.392 7.55495 17.392 8.72303Z" stroke="#2F2F38" stroke-width="2" stroke-linecap="round" stroke-linejoin="round"/>
</svg>
